<svg xmlns="http://www.w3.org/2000/svg" xmlns:xlink="http://www.w3.org/1999/xlink" viewBox="0 0 66.04 66.04"><defs><style>.cls-1{fill:url(#Dégradé_sans_nom_135);}.cls-2{fill:url(#Dégradé_sans_nom_66);}.cls-3{fill:url(#Dégradé_sans_nom_91);}.cls-4{fill:url(#Dégradé_sans_nom_91-2);}.cls-5{fill:url(#Dégradé_sans_nom_91-3);}</style><radialGradient id="Dégradé_sans_nom_135" cx="33.02" cy="33.02" r="38.45" gradientUnits="userSpaceOnUse"><stop offset="0.65" stop-color="#551d49"/><stop offset="0.68" stop-color="#581d4c"/><stop offset="0.7" stop-color="#621d53"/><stop offset="0.72" stop-color="#721d61"/><stop offset="0.74" stop-color="#891d74"/><stop offset="0.75" stop-color="#a71c8c"/><stop offset="0.77" stop-color="#cb1caa"/><stop offset="0.77" stop-color="#d31cb0"/><stop offset="0.89" stop-color="#5c1d4f"/></radialGradient><radialGradient id="Dégradé_sans_nom_66" cx="33.02" cy="33.02" r="35.88" gradientUnits="userSpaceOnUse"><stop offset="0.38" stop-color="#27e0e0"/><stop offset="0.42" stop-color="#28d8d9"/><stop offset="0.48" stop-color="#2bc2c6"/><stop offset="0.56" stop-color="#2f9da6"/><stop offset="0.65" stop-color="#356b7a"/><stop offset="0.74" stop-color="#3d2b43"/><stop offset="0.76" stop-color="#3f1d37"/></radialGradient><radialGradient id="Dégradé_sans_nom_91" cx="33.95" cy="32.96" r="20.24" gradientUnits="userSpaceOnUse"><stop offset="0.45" stop-color="#d31cb0"/><stop offset="0.9"/></radialGradient><radialGradient id="Dégradé_sans_nom_91-2" cx="33.9" cy="32.95" r="20.88" xlink:href="#Dégradé_sans_nom_91"/><radialGradient id="Dégradé_sans_nom_91-3" cx="34.02" cy="32.91" r="20.4" xlink:href="#Dégradé_sans_nom_91"/></defs><g id="Calque_2" data-name="Calque 2"><g id="SVG"><g id="aleat"><circle class="cls-1" cx="33.02" cy="33.02" r="33.02"/><circle class="cls-2" cx="33.02" cy="33.02" r="26.99"/><path class="cls-3" d="M51.74,40.71,46,34.87a1,1,0,0,0-1.67.69v2.69c-4.23,0-6.57-1.21-8.26-3.2a.46.46,0,0,0-.77.09c-.29.55-.57,1.14-.88,1.77-.48,1-1,2-1.57,3.1a.7.7,0,0,0,.13.86c2.51,2.16,6,3.67,11.35,3.67v2.7a1,1,0,0,0,1.67.69l5.75-5.85A1,1,0,0,0,51.74,40.71Z"/><path class="cls-4" d="M19.6,18.07a3.15,3.15,0,0,0-.91,6.23c4,.64,5.85,2.86,7.47,5.9a.6.6,0,0,0,1.06,0,25,25,0,0,1,3-4.47.75.75,0,0,0,.07-.92A14.76,14.76,0,0,0,19.6,18.07Z"/><path class="cls-5" d="M51.74,24,46,18.11a1,1,0,0,0-1.67.69v2.69c-11.17,0-14.39,6.65-17,12-2.05,4.22-3.61,7.44-8.62,8.24A3.17,3.17,0,0,0,16,44.85,3.14,3.14,0,0,0,19.61,48c8.32-1.27,11.1-7,13.39-11.73,2.37-4.9,4.09-8.45,11.32-8.45v2.7a1,1,0,0,0,1.67.69l5.75-5.85A1,1,0,0,0,51.74,24Z"/></g></g></g></svg>