<svg xmlns="http://www.w3.org/2000/svg" viewBox="0 0 84.71 84.71"><defs><style>.cls-1{fill:#1ae8e3;}</style></defs><g id="Calque_2" data-name="Calque 2"><g id="SVG"><line class="cls-1" x1="13" y1="13" x2="71.71" y2="71.71"/><path class="cls-1" d="M71.71,84.71a13,13,0,0,1-9.19-3.81L3.81,22.19A13,13,0,0,1,22.19,3.81L80.9,62.52a13,13,0,0,1-9.19,22.19Z"/><line class="cls-1" x1="71.71" y1="13" x2="13" y2="71.71"/><path class="cls-1" d="M13,84.71A13,13,0,0,1,3.81,62.52L62.52,3.81A13,13,0,0,1,80.9,22.19L22.19,80.9A13,13,0,0,1,13,84.71Z"/></g></g></svg>