<svg xmlns="http://www.w3.org/2000/svg" xmlns:xlink="http://www.w3.org/1999/xlink" viewBox="0 0 66.04 66.04"><defs><style>.cls-1{fill:url(#Dégradé_sans_nom_135);}.cls-2{fill:url(#Dégradé_sans_nom_66);}.cls-3{fill:url(#Dégradé_sans_nom_91);}.cls-4{fill:url(#Dégradé_sans_nom_91-2);}</style><radialGradient id="Dégradé_sans_nom_135" cx="33.02" cy="33.02" r="38.45" gradientUnits="userSpaceOnUse"><stop offset="0.65" stop-color="#551d49"/><stop offset="0.68" stop-color="#581d4c"/><stop offset="0.7" stop-color="#621d53"/><stop offset="0.72" stop-color="#721d61"/><stop offset="0.74" stop-color="#891d74"/><stop offset="0.75" stop-color="#a71c8c"/><stop offset="0.77" stop-color="#cb1caa"/><stop offset="0.77" stop-color="#d31cb0"/><stop offset="0.89" stop-color="#5c1d4f"/></radialGradient><radialGradient id="Dégradé_sans_nom_66" cx="33.02" cy="33.02" r="35.88" gradientUnits="userSpaceOnUse"><stop offset="0.38" stop-color="#27e0e0"/><stop offset="0.42" stop-color="#28d8d9"/><stop offset="0.48" stop-color="#2bc2c6"/><stop offset="0.56" stop-color="#2f9da6"/><stop offset="0.65" stop-color="#356b7a"/><stop offset="0.74" stop-color="#3d2b43"/><stop offset="0.76" stop-color="#3f1d37"/></radialGradient><radialGradient id="Dégradé_sans_nom_91" cx="32.83" cy="33.3" r="20.37" gradientUnits="userSpaceOnUse"><stop offset="0.45" stop-color="#d31cb0"/><stop offset="0.9"/></radialGradient><radialGradient id="Dégradé_sans_nom_91-2" cx="32.91" cy="33.26" r="19.99" xlink:href="#Dégradé_sans_nom_91"/></defs><g id="Calque_2" data-name="Calque 2"><g id="SVG"><g id="loop"><circle class="cls-1" cx="33.02" cy="33.02" r="33.02"/><circle class="cls-2" cx="33.02" cy="33.02" r="26.99"/><path class="cls-3" d="M34.62,11.06a.55.55,0,0,0-.94.39v4.24c-.36,0-.72,0-1.08,0a17,17,0,0,0-17,17,16.68,16.68,0,0,0,1.16,6.14A3.2,3.2,0,0,0,22,40h0a3.26,3.26,0,0,0,.69-3.48,10.43,10.43,0,0,1-.71-3.8A10.64,10.64,0,0,1,32.6,22c.36,0,.72,0,1.08.06v4.85a.55.55,0,0,0,.94.39l6.54-6.53a2.28,2.28,0,0,0,0-3.21Z"/><path class="cls-4" d="M44.06,26.31h0a3.24,3.24,0,0,0-.69,3.47,10.43,10.43,0,0,1,.71,3.8A10.64,10.64,0,0,1,33.44,44.22a9.64,9.64,0,0,1-1.08-.06V39.68a.71.71,0,0,0-1.21-.5l-6.42,6.43a2.05,2.05,0,0,0,0,2.9l6.42,6.42a.71.71,0,0,0,1.21-.5V50.56c.36,0,.72,0,1.08,0A17,17,0,0,0,49.31,27.44,3.2,3.2,0,0,0,44.06,26.31Z"/></g></g></g></svg>