<svg xmlns="http://www.w3.org/2000/svg" xmlns:xlink="http://www.w3.org/1999/xlink" viewBox="0 0 66.04 66.04"><defs><style>.cls-1{fill:url(#Dégradé_sans_nom_135);}.cls-2{fill:url(#Dégradé_sans_nom_66);}.cls-3{fill:url(#Dégradé_sans_nom_91);}</style><radialGradient id="Dégradé_sans_nom_135" cx="33.02" cy="33.02" r="38.45" gradientUnits="userSpaceOnUse"><stop offset="0.65" stop-color="#551d49"/><stop offset="0.68" stop-color="#581d4c"/><stop offset="0.7" stop-color="#621d53"/><stop offset="0.72" stop-color="#721d61"/><stop offset="0.74" stop-color="#891d74"/><stop offset="0.75" stop-color="#a71c8c"/><stop offset="0.77" stop-color="#cb1caa"/><stop offset="0.77" stop-color="#d31cb0"/><stop offset="0.89" stop-color="#5c1d4f"/></radialGradient><radialGradient id="Dégradé_sans_nom_66" cx="33.02" cy="33.02" r="35.88" gradientUnits="userSpaceOnUse"><stop offset="0.38" stop-color="#27e0e0"/><stop offset="0.42" stop-color="#28d8d9"/><stop offset="0.48" stop-color="#2bc2c6"/><stop offset="0.56" stop-color="#2f9da6"/><stop offset="0.65" stop-color="#356b7a"/><stop offset="0.74" stop-color="#3d2b43"/><stop offset="0.76" stop-color="#3f1d37"/></radialGradient><radialGradient id="Dégradé_sans_nom_91" cx="32.9" cy="33.02" r="20.59" gradientUnits="userSpaceOnUse"><stop offset="0.45" stop-color="#d31cb0"/><stop offset="0.9"/></radialGradient></defs><g id="Calque_2" data-name="Calque 2"><g id="Calque_2-2" data-name="Calque 2"><g id="next"><circle class="cls-1" cx="33.02" cy="33.02" r="33.02"/><circle class="cls-2" cx="33.02" cy="33.02" r="26.99"/><path class="cls-3" d="M41.45,20.32V29.4a1.28,1.28,0,0,1-1.92,1.11L21.68,20.15a1.28,1.28,0,0,0-1.92,1.11V44.78a1.28,1.28,0,0,0,1.92,1.1L39.53,35.53a1.28,1.28,0,0,1,1.92,1.11v9.08A1.29,1.29,0,0,0,42.73,47h2A1.28,1.28,0,0,0,46,45.72V20.32A1.28,1.28,0,0,0,44.75,19h-2A1.28,1.28,0,0,0,41.45,20.32Z"/></g></g></g></svg>