<svg xmlns="http://www.w3.org/2000/svg" xmlns:xlink="http://www.w3.org/1999/xlink" viewBox="0 0 66.04 66.04"><defs><style>.cls-1{fill:url(#Dégradé_sans_nom_135);}.cls-2{fill:url(#Dégradé_sans_nom_66);}.cls-3{fill:url(#Dégradé_sans_nom_91);}.cls-4{fill:url(#Dégradé_sans_nom_91-2);}.cls-5{fill:url(#Dégradé_sans_nom_91-3);}.cls-6{fill:url(#Dégradé_sans_nom_56);}.cls-7{fill:url(#Dégradé_sans_nom_91-4);}.cls-8{fill:url(#Dégradé_sans_nom_91-5);}</style><radialGradient id="Dégradé_sans_nom_135" cx="33.02" cy="33.02" r="38.45" gradientUnits="userSpaceOnUse"><stop offset="0.65" stop-color="#551d49"/><stop offset="0.68" stop-color="#581d4c"/><stop offset="0.7" stop-color="#621d53"/><stop offset="0.72" stop-color="#721d61"/><stop offset="0.74" stop-color="#891d74"/><stop offset="0.75" stop-color="#a71c8c"/><stop offset="0.77" stop-color="#cb1caa"/><stop offset="0.77" stop-color="#d31cb0"/><stop offset="0.89" stop-color="#5c1d4f"/></radialGradient><radialGradient id="Dégradé_sans_nom_66" cx="33.02" cy="33.02" r="35.88" gradientUnits="userSpaceOnUse"><stop offset="0.38" stop-color="#27e0e0"/><stop offset="0.42" stop-color="#28d8d9"/><stop offset="0.48" stop-color="#2bc2c6"/><stop offset="0.56" stop-color="#2f9da6"/><stop offset="0.65" stop-color="#356b7a"/><stop offset="0.74" stop-color="#3d2b43"/><stop offset="0.76" stop-color="#3f1d37"/></radialGradient><radialGradient id="Dégradé_sans_nom_91" cx="33.06" cy="33.11" r="25.18" gradientUnits="userSpaceOnUse"><stop offset="0.45" stop-color="#d31cb0"/><stop offset="0.9"/></radialGradient><radialGradient id="Dégradé_sans_nom_91-2" cx="32.91" cy="32.99" r="25.45" xlink:href="#Dégradé_sans_nom_91"/><radialGradient id="Dégradé_sans_nom_91-3" cx="32.94" cy="33.23" r="25.52" xlink:href="#Dégradé_sans_nom_91"/><radialGradient id="Dégradé_sans_nom_56" cx="32.7" cy="32.99" r="25.43" gradientUnits="userSpaceOnUse"><stop offset="0.45" stop-color="#d31cb0"/><stop offset="0.74" stop-color="#4a0a3e"/><stop offset="0.9"/></radialGradient><radialGradient id="Dégradé_sans_nom_91-4" cx="32.82" cy="32.99" r="25.89" xlink:href="#Dégradé_sans_nom_91"/><radialGradient id="Dégradé_sans_nom_91-5" cx="33.18" cy="33.23" r="24.45" xlink:href="#Dégradé_sans_nom_91"/></defs><g id="Calque_2" data-name="Calque 2"><g id="Calque_2-2" data-name="Calque 2"><g id="playlist"><circle class="cls-1" cx="33.02" cy="33.02" r="33.02"/><circle class="cls-2" cx="33.02" cy="33.02" r="26.99"/><path class="cls-3" d="M46.72,23.59H43c-2.58,0-3.44,1.44-3.44,3.45V44.18a5.68,5.68,0,0,0-3.87-1.41c-2.77,0-5,1.73-5,3.87s2.25,3.87,5,3.87,5-1.73,5-3.87v0h0V33.34s-.29-3.44,1.72-4.87,7.45,2.29,7.45,2.29V25.89C49.87,23.59,46.72,23.59,46.72,23.59Z"/><rect class="cls-4" x="15.35" y="16.03" width="34.65" height="4.52" rx="2.26"/><rect class="cls-5" x="15.35" y="23.56" width="23.1" height="4.52" rx="2.26"/><rect class="cls-6" x="15.35" y="31.1" width="19.59" height="4.52" rx="2.26"/><rect class="cls-7" x="15.35" y="38.63" width="15.57" height="4.52" rx="2.26"/><rect class="cls-8" x="15.35" y="46.16" width="12.05" height="4.52" rx="2.26"/></g></g></g></svg>