<svg xmlns="http://www.w3.org/2000/svg" xmlns:xlink="http://www.w3.org/1999/xlink" viewBox="0 0 66.04 66.04"><defs><style>.cls-1{fill:url(#Dégradé_sans_nom_135);}.cls-2{fill:url(#Dégradé_sans_nom_66);}.cls-3{fill:url(#Dégradé_sans_nom_91);}</style><radialGradient id="Dégradé_sans_nom_135" cx="33.02" cy="33.02" r="38.45" gradientUnits="userSpaceOnUse"><stop offset="0.65" stop-color="#551d49"/><stop offset="0.68" stop-color="#581d4c"/><stop offset="0.7" stop-color="#621d53"/><stop offset="0.72" stop-color="#721d61"/><stop offset="0.74" stop-color="#891d74"/><stop offset="0.75" stop-color="#a71c8c"/><stop offset="0.77" stop-color="#cb1caa"/><stop offset="0.77" stop-color="#d31cb0"/><stop offset="0.89" stop-color="#5c1d4f"/></radialGradient><radialGradient id="Dégradé_sans_nom_66" cx="33.02" cy="33.02" r="35.88" gradientUnits="userSpaceOnUse"><stop offset="0.38" stop-color="#27e0e0"/><stop offset="0.42" stop-color="#28d8d9"/><stop offset="0.48" stop-color="#2bc2c6"/><stop offset="0.56" stop-color="#2f9da6"/><stop offset="0.65" stop-color="#356b7a"/><stop offset="0.74" stop-color="#3d2b43"/><stop offset="0.76" stop-color="#3f1d37"/></radialGradient><radialGradient id="Dégradé_sans_nom_91" cx="33.14" cy="33.02" r="20.45" gradientUnits="userSpaceOnUse"><stop offset="0.45" stop-color="#d31cb0"/><stop offset="0.9"/></radialGradient></defs><g id="Calque_2" data-name="Calque 2"><g id="Calque_2-2" data-name="Calque 2"><g id="prev"><circle class="cls-1" cx="33.02" cy="33.02" r="33.02"/><circle class="cls-2" cx="33.02" cy="33.02" r="26.99"/><path class="cls-3" d="M43.71,20.53l-16.56,9.6a1.71,1.71,0,0,1-2.57-1.48v-7.9A1.7,1.7,0,0,0,22.87,19H21.71A1.71,1.71,0,0,0,20,20.75V45.29A1.72,1.72,0,0,0,21.71,47h1.16a1.71,1.71,0,0,0,1.71-1.71V37.38a1.71,1.71,0,0,1,2.57-1.48l16.56,9.61A1.7,1.7,0,0,0,46.27,44V22A1.7,1.7,0,0,0,43.71,20.53Z"/></g></g></g></svg>